<?xml version="1.0" standalone="no"?>
<!DOCTYPE svg PUBLIC "-//W3C//DTD SVG 20010904//EN"
 "http://www.w3.org/TR/2001/REC-SVG-20010904/DTD/svg10.dtd">
<svg version="1.0" xmlns="http://www.w3.org/2000/svg"
 width="200.000000pt" height="65.000000pt" viewBox="0 0 200.000000 65.000000"
 preserveAspectRatio="xMidYMid meet">

<g transform="translate(0.000000,65.000000) scale(0.100000,-0.100000)"
fill="#000000" stroke="none">
<path d="M272 348 l-2 -118 48 2 47 1 -42 4 -42 4 -4 112 -3 112 -2 -117z"/>
<path d="M968 444 c-35 -18 -50 -45 -37 -65 9 -12 10 -12 6 1 -2 8 9 27 24 43
42 40 99 38 143 -5 28 -28 32 -38 29 -69 -3 -20 -1 -39 4 -42 14 -9 7 91 -7
108 -36 43 -111 57 -162 29z"/>
<path d="M1353 453 c-7 -2 -13 -12 -13 -21 0 -14 1 -14 13 0 6 9 26 19 42 21
l30 4 -30 1 c-16 0 -36 -2 -42 -5z"/>
<path d="M1665 453 c11 -3 27 -11 36 -19 9 -8 18 -12 20 -10 2 3 4 -13 4 -34
0 -21 -2 -37 -5 -35 -3 1 -11 -3 -18 -11 -10 -11 -10 -14 1 -14 22 0 33 21 32
65 0 32 -5 42 -25 52 -14 7 -34 12 -45 12 l-20 -1 20 -5z"/>
<path d="M254 340 c0 -63 1 -89 3 -57 2 31 2 83 0 115 -2 31 -3 5 -3 -58z"/>
<path d="M530 340 c0 -73 4 -110 11 -110 7 0 10 21 7 60 -2 46 0 60 12 64 13
3 13 4 0 5 -11 1 -15 12 -13 46 1 25 -2 45 -8 45 -5 0 -9 -48 -9 -110z"/>
<path d="M710 406 c0 -34 -4 -46 -17 -49 -17 -4 -17 -5 0 -6 14 -1 17 -11 17
-61 0 -33 4 -60 10 -60 6 0 10 43 10 110 0 67 -4 110 -10 110 -5 0 -10 -20
-10 -44z"/>
<path d="M1634 340 c0 -63 1 -89 3 -57 2 31 2 83 0 115 -2 31 -3 5 -3 -58z"/>
<path d="M1362 352 c20 -20 40 -45 45 -56 9 -16 11 -17 16 -2 5 12 3 15 -5 10
-7 -5 -9 -2 -5 8 6 18 -43 70 -69 74 -11 2 -4 -10 18 -34z m24 -4 l29 -33 -32
29 c-31 28 -38 36 -30 36 2 0 16 -15 33 -32z"/>
<path d="M912 343 c0 -24 1 -43 2 -43 8 0 12 48 6 66 -5 13 -8 5 -8 -23z"/>
<path d="M927 295 c-6 -14 45 -65 65 -65 6 0 -5 12 -24 28 -19 15 -33 33 -30
40 5 17 -5 15 -11 -3z"/>
<path d="M1115 280 c-3 -11 -18 -27 -33 -35 -15 -8 -21 -14 -15 -15 20 0 78
56 65 64 -6 3 -13 -3 -17 -14z"/>
<path d="M1402 249 c-7 -10 -8 -19 -3 -19 13 0 33 28 23 33 -4 3 -13 -3 -20
-14z"/>
<path d="M742 120 c0 -19 2 -27 5 -17 2 9 2 25 0 35 -3 9 -5 1 -5 -18z"/>
<path d="M445 130 c-3 -6 1 -7 9 -4 18 7 21 14 7 14 -6 0 -13 -4 -16 -10z"/>
<path d="M950 136 c0 -2 7 -7 16 -10 8 -3 12 -2 9 4 -6 10 -25 14 -25 6z"/>
<path d="M337 110 c-3 -11 -1 -20 4 -20 5 0 9 9 9 20 0 11 -2 20 -4 20 -2 0
-6 -9 -9 -20z"/>
<path d="M407 110 c-3 -11 -1 -20 4 -20 5 0 9 9 9 20 0 11 -2 20 -4 20 -2 0
-6 -9 -9 -20z"/>
<path d="M477 110 c-3 -11 -1 -20 4 -20 5 0 9 9 9 20 0 11 -2 20 -4 20 -2 0
-6 -9 -9 -20z"/>
<path d="M610 116 c0 -8 4 -17 9 -20 5 -4 7 3 4 14 -6 23 -13 26 -13 6z"/>
<path d="M932 110 c0 -14 2 -19 5 -12 2 6 2 18 0 25 -3 6 -5 1 -5 -13z"/>
<path d="M540 111 c0 -6 4 -13 10 -16 6 -3 7 1 4 9 -7 18 -14 21 -14 7z"/>
<path d="M1610 111 c0 -6 4 -13 10 -16 6 -3 7 1 4 9 -7 18 -14 21 -14 7z"/>
<path d="M1246 83 c-6 -14 -5 -15 5 -6 7 7 10 15 7 18 -3 3 -9 -2 -12 -12z"/>
</g>
</svg>
